<?xml version="1.0" encoding="UTF-8" standalone="no"?>
<!DOCTYPE svg PUBLIC "-//W3C//DTD SVG 1.1//EN"
 "http://www.w3.org/Graphics/SVG/1.1/DTD/svg11.dtd">
<!-- Generated by graphviz version 12.1.1 (20240910.0053)
 -->
<!-- Pages: 1 -->
<svg width="2270pt" height="810pt"
 viewBox="0.00 0.00 2270.00 809.50" xmlns="http://www.w3.org/2000/svg" xmlns:xlink="http://www.w3.org/1999/xlink">
<g id="graph0" class="graph" transform="scale(1 1) rotate(0) translate(4 805.5)">
<polygon fill="white" stroke="none" points="-4,4 -4,-805.5 2266,-805.5 2266,4 -4,4"/>
<g id="clust1" class="cluster">
<title>cluster_s25</title>
<polygon fill="none" stroke="black" points="282,-524.5 282,-685.5 662,-685.5 662,-524.5 282,-524.5"/>
<text text-anchor="middle" x="472" y="-668.2" font-family="Times,serif" font-size="14.00">gha:infra:sample&#45;&gt;InfraDev</text>
</g>
<g id="clust2" class="cluster">
<title>cluster_s27</title>
<polygon fill="none" stroke="black" points="670,-236.5 670,-601 1132,-601 1132,-236.5 670,-236.5"/>
<text text-anchor="middle" x="901" y="-583.7" font-family="Times,serif" font-size="14.00">gha:infra:sample&#45;&gt;InfraDev&#45;&gt;infrapipeline</text>
</g>
<g id="clust3" class="cluster">
<title>cluster_s34</title>
<polygon fill="none" stroke="black" points="27,-8 27,-228.5 1095,-228.5 1095,-8 27,-8"/>
<text text-anchor="middle" x="561" y="-211.2" font-family="Times,serif" font-size="14.00">gha:infra:sample&#45;&gt;InfraDev&#45;&gt;infrapipeline&#45;&gt;helm</text>
</g>
<g id="clust4" class="cluster">
<title>cluster_s7</title>
<polygon fill="none" stroke="black" points="1140,-524.5 1140,-685.5 1524,-685.5 1524,-524.5 1140,-524.5"/>
<text text-anchor="middle" x="1332" y="-668.2" font-family="Times,serif" font-size="14.00">gha:infra:sample&#45;&gt;InfraProd</text>
</g>
<g id="clust5" class="cluster">
<title>cluster_s9</title>
<polygon fill="none" stroke="black" points="1532,-236.5 1532,-601 1998,-601 1998,-236.5 1532,-236.5"/>
<text text-anchor="middle" x="1765" y="-583.7" font-family="Times,serif" font-size="14.00">gha:infra:sample&#45;&gt;InfraProd&#45;&gt;infrapipeline</text>
</g>
<g id="clust6" class="cluster">
<title>cluster_s16</title>
<polygon fill="none" stroke="black" points="1178,-8 1178,-228.5 2254,-228.5 2254,-8 1178,-8"/>
<text text-anchor="middle" x="1716" y="-211.2" font-family="Times,serif" font-size="14.00">gha:infra:sample&#45;&gt;InfraProd&#45;&gt;infrapipeline&#45;&gt;helm</text>
</g>
<g id="clust7" class="cluster">
<title>cluster_s1</title>
<polygon fill="none" stroke="black" points="8,-609 8,-745.8 274,-745.8 274,-609 8,-609"/>
<text text-anchor="middle" x="141" y="-728.5" font-family="Times,serif" font-size="14.00">gha:infra:sample&#45;&gt;lint</text>
</g>
<!-- n40 -->
<g id="node1" class="node">
<title>n40</title>
<ellipse fill="none" stroke="black" cx="461" cy="-635" rx="171.11" ry="18"/>
<text text-anchor="middle" x="461" y="-629.95" font-family="Times,serif" font-size="14.00">gha:infra:sample&#45;&gt;InfraDev&#45;&gt;infrapipeline</text>
</g>
<!-- n41 -->
<g id="node2" class="node">
<title>n41</title>
<ellipse fill="none" stroke="black" cx="461" cy="-550.5" rx="156.78" ry="18"/>
<text text-anchor="middle" x="461" y="-545.45" font-family="Times,serif" font-size="14.00">gha:infra:sample&#45;&gt;InfraDev&#45;&gt;post:task</text>
</g>
<!-- n40&#45;&gt;n41 -->
<g id="edge1" class="edge">
<title>n40&#45;&gt;n41</title>
<path fill="none" stroke="green" d="M461,-616.5C461,-606 461,-592.39 461,-580.33"/>
<polygon fill="green" stroke="green" points="464.5,-580.48 461,-570.48 457.5,-580.48 464.5,-580.48"/>
</g>
<!-- n28 -->
<!-- n40&#45;&gt;n28 -->
<g id="edge20" class="edge">
<title>n40&#45;&gt;n28</title>
<path fill="none" stroke="brown" d="M550.95,-619.33C579.65,-615.23 611.59,-611.28 641,-609 654.02,-607.99 1100.88,-609.26 1111,-601 1121.88,-592.12 1123.47,-575.09 1123.13,-563.51"/>
<polygon fill="brown" stroke="brown" points="1126.64,-563.54 1122.28,-553.89 1119.67,-564.16 1126.64,-563.54"/>
</g>
<!-- n26 -->
<!-- n33 -->
<g id="node4" class="node">
<title>n33</title>
<ellipse fill="none" stroke="black" cx="898" cy="-262.5" rx="198.75" ry="18"/>
<text text-anchor="middle" x="898" y="-257.45" font-family="Times,serif" font-size="14.00">gha:infra:sample&#45;&gt;InfraDev&#45;&gt;infrapipeline&#45;&gt;helm</text>
</g>
<!-- n35 -->
<!-- n33&#45;&gt;n35 -->
<g id="edge21" class="edge">
<title>n33&#45;&gt;n35</title>
<path fill="none" stroke="brown" d="M898,-244C898,-228.23 898,-205.43 898,-191.44"/>
<polygon fill="brown" stroke="brown" points="901.5,-191.54 898,-181.54 894.5,-191.54 901.5,-191.54"/>
</g>
<!-- n31 -->
<g id="node5" class="node">
<title>n31</title>
<ellipse fill="none" stroke="black" cx="898" cy="-406.5" rx="220.25" ry="18"/>
<text text-anchor="middle" x="898" y="-401.45" font-family="Times,serif" font-size="14.00">gha:infra:sample&#45;&gt;InfraDev&#45;&gt;infrapipeline&#45;&gt;infra:apply</text>
</g>
<!-- n32 -->
<g id="node8" class="node">
<title>n32</title>
<ellipse fill="none" stroke="black" cx="898" cy="-334.5" rx="218.2" ry="18"/>
<text text-anchor="middle" x="898" y="-329.45" font-family="Times,serif" font-size="14.00">gha:infra:sample&#45;&gt;InfraDev&#45;&gt;infrapipeline&#45;&gt;post:apply</text>
</g>
<!-- n31&#45;&gt;n32 -->
<g id="edge2" class="edge">
<title>n31&#45;&gt;n32</title>
<path fill="none" stroke="green" d="M898,-388.2C898,-380.91 898,-372.23 898,-364.04"/>
<polygon fill="green" stroke="green" points="901.5,-364.12 898,-354.12 894.5,-364.12 901.5,-364.12"/>
</g>
<!-- n29 -->
<g id="node6" class="node">
<title>n29</title>
<ellipse fill="none" stroke="black" cx="890" cy="-550.5" rx="212.06" ry="18"/>
<text text-anchor="middle" x="890" y="-545.45" font-family="Times,serif" font-size="14.00">gha:infra:sample&#45;&gt;InfraDev&#45;&gt;infrapipeline&#45;&gt;infra:init</text>
</g>
<!-- n30 -->
<g id="node7" class="node">
<title>n30</title>
<ellipse fill="none" stroke="black" cx="896" cy="-478.5" rx="215.64" ry="18"/>
<text text-anchor="middle" x="896" y="-473.45" font-family="Times,serif" font-size="14.00">gha:infra:sample&#45;&gt;InfraDev&#45;&gt;infrapipeline&#45;&gt;infra:plan</text>
</g>
<!-- n29&#45;&gt;n30 -->
<g id="edge3" class="edge">
<title>n29&#45;&gt;n30</title>
<path fill="none" stroke="green" d="M891.48,-532.2C892.11,-524.91 892.85,-516.23 893.55,-508.04"/>
<polygon fill="green" stroke="green" points="897.04,-508.37 894.4,-498.11 890.06,-507.78 897.04,-508.37"/>
</g>
<!-- n30&#45;&gt;n31 -->
<g id="edge4" class="edge">
<title>n30&#45;&gt;n31</title>
<path fill="none" stroke="green" d="M896.49,-460.2C896.7,-452.91 896.95,-444.23 897.18,-436.04"/>
<polygon fill="green" stroke="green" points="900.68,-436.21 897.47,-426.12 893.68,-436.01 900.68,-436.21"/>
</g>
<!-- n32&#45;&gt;n33 -->
<g id="edge5" class="edge">
<title>n32&#45;&gt;n33</title>
<path fill="none" stroke="green" d="M898,-316.2C898,-308.91 898,-300.23 898,-292.04"/>
<polygon fill="green" stroke="green" points="901.5,-292.12 898,-282.12 894.5,-292.12 901.5,-292.12"/>
</g>
<!-- n37 -->
<g id="node10" class="node">
<title>n37</title>
<ellipse fill="none" stroke="black" cx="434" cy="-106" rx="254.03" ry="18"/>
<text text-anchor="middle" x="434" y="-100.95" font-family="Times,serif" font-size="14.00">gha:infra:sample&#45;&gt;InfraDev&#45;&gt;infrapipeline&#45;&gt;helm&#45;&gt;helm:deploy</text>
</g>
<!-- n39 -->
<g id="node11" class="node">
<title>n39</title>
<ellipse fill="none" stroke="black" cx="281" cy="-34" rx="245.84" ry="18"/>
<text text-anchor="middle" x="281" y="-28.95" font-family="Times,serif" font-size="14.00">gha:infra:sample&#45;&gt;InfraDev&#45;&gt;infrapipeline&#45;&gt;helm&#45;&gt;helm:docs</text>
</g>
<!-- n37&#45;&gt;n39 -->
<g id="edge7" class="edge">
<title>n37&#45;&gt;n39</title>
<path fill="none" stroke="green" d="M396.57,-87.88C376.2,-78.55 350.77,-66.92 328.95,-56.94"/>
<polygon fill="green" stroke="green" points="330.5,-53.8 319.95,-52.82 327.59,-60.16 330.5,-53.8"/>
</g>
<!-- n38 -->
<g id="node12" class="node">
<title>n38</title>
<ellipse fill="none" stroke="black" cx="816" cy="-34" rx="271.43" ry="18"/>
<text text-anchor="middle" x="816" y="-28.95" font-family="Times,serif" font-size="14.00">gha:infra:sample&#45;&gt;InfraDev&#45;&gt;infrapipeline&#45;&gt;helm&#45;&gt;helm:notification</text>
</g>
<!-- n37&#45;&gt;n38 -->
<g id="edge6" class="edge">
<title>n37&#45;&gt;n38</title>
<path fill="none" stroke="green" d="M523.08,-88.68C580.67,-78.12 655.75,-64.36 715.48,-53.42"/>
<polygon fill="green" stroke="green" points="715.75,-56.93 724.96,-51.68 714.49,-50.04 715.75,-56.93"/>
</g>
<!-- n36 -->
<g id="node13" class="node">
<title>n36</title>
<ellipse fill="none" stroke="black" cx="434" cy="-178" rx="241.74" ry="18"/>
<text text-anchor="middle" x="434" y="-172.95" font-family="Times,serif" font-size="14.00">gha:infra:sample&#45;&gt;InfraDev&#45;&gt;infrapipeline&#45;&gt;helm&#45;&gt;helm:test</text>
</g>
<!-- n36&#45;&gt;n37 -->
<g id="edge8" class="edge">
<title>n36&#45;&gt;n37</title>
<path fill="none" stroke="green" d="M434,-159.7C434,-152.41 434,-143.73 434,-135.54"/>
<polygon fill="green" stroke="green" points="437.5,-135.62 434,-125.62 430.5,-135.62 437.5,-135.62"/>
</g>
<!-- n22 -->
<g id="node15" class="node">
<title>n22</title>
<ellipse fill="none" stroke="black" cx="1321" cy="-635" rx="173.16" ry="18"/>
<text text-anchor="middle" x="1321" y="-629.95" font-family="Times,serif" font-size="14.00">gha:infra:sample&#45;&gt;InfraProd&#45;&gt;infrapipeline</text>
</g>
<!-- n23 -->
<g id="node16" class="node">
<title>n23</title>
<ellipse fill="none" stroke="black" cx="1321" cy="-550.5" rx="158.83" ry="18"/>
<text text-anchor="middle" x="1321" y="-545.45" font-family="Times,serif" font-size="14.00">gha:infra:sample&#45;&gt;InfraProd&#45;&gt;post:task</text>
</g>
<!-- n22&#45;&gt;n23 -->
<g id="edge9" class="edge">
<title>n22&#45;&gt;n23</title>
<path fill="none" stroke="green" d="M1321,-616.5C1321,-606 1321,-592.39 1321,-580.33"/>
<polygon fill="green" stroke="green" points="1324.5,-580.48 1321,-570.48 1317.5,-580.48 1324.5,-580.48"/>
</g>
<!-- n10 -->
<!-- n22&#45;&gt;n10 -->
<g id="edge24" class="edge">
<title>n22&#45;&gt;n10</title>
<path fill="none" stroke="brown" d="M1411.96,-619.33C1440.97,-615.24 1473.27,-611.28 1503,-609 1516.13,-607.99 1966.8,-609.33 1977,-601 1987.88,-592.12 1989.47,-575.09 1989.13,-563.51"/>
<polygon fill="brown" stroke="brown" points="1992.64,-563.54 1988.28,-553.89 1985.67,-564.16 1992.64,-563.54"/>
</g>
<!-- n8 -->
<!-- n15 -->
<g id="node18" class="node">
<title>n15</title>
<ellipse fill="none" stroke="black" cx="1762" cy="-262.5" rx="200.8" ry="18"/>
<text text-anchor="middle" x="1762" y="-257.45" font-family="Times,serif" font-size="14.00">gha:infra:sample&#45;&gt;InfraProd&#45;&gt;infrapipeline&#45;&gt;helm</text>
</g>
<!-- n17 -->
<!-- n15&#45;&gt;n17 -->
<g id="edge25" class="edge">
<title>n15&#45;&gt;n17</title>
<path fill="none" stroke="brown" d="M1762,-244C1762,-228.23 1762,-205.43 1762,-191.44"/>
<polygon fill="brown" stroke="brown" points="1765.5,-191.54 1762,-181.54 1758.5,-191.54 1765.5,-191.54"/>
</g>
<!-- n13 -->
<g id="node19" class="node">
<title>n13</title>
<ellipse fill="none" stroke="black" cx="1762" cy="-406.5" rx="222.3" ry="18"/>
<text text-anchor="middle" x="1762" y="-401.45" font-family="Times,serif" font-size="14.00">gha:infra:sample&#45;&gt;InfraProd&#45;&gt;infrapipeline&#45;&gt;infra:apply</text>
</g>
<!-- n14 -->
<g id="node22" class="node">
<title>n14</title>
<ellipse fill="none" stroke="black" cx="1762" cy="-334.5" rx="220.25" ry="18"/>
<text text-anchor="middle" x="1762" y="-329.45" font-family="Times,serif" font-size="14.00">gha:infra:sample&#45;&gt;InfraProd&#45;&gt;infrapipeline&#45;&gt;post:apply</text>
</g>
<!-- n13&#45;&gt;n14 -->
<g id="edge10" class="edge">
<title>n13&#45;&gt;n14</title>
<path fill="none" stroke="green" d="M1762,-388.2C1762,-380.91 1762,-372.23 1762,-364.04"/>
<polygon fill="green" stroke="green" points="1765.5,-364.12 1762,-354.12 1758.5,-364.12 1765.5,-364.12"/>
</g>
<!-- n11 -->
<g id="node20" class="node">
<title>n11</title>
<ellipse fill="none" stroke="black" cx="1754" cy="-550.5" rx="214.11" ry="18"/>
<text text-anchor="middle" x="1754" y="-545.45" font-family="Times,serif" font-size="14.00">gha:infra:sample&#45;&gt;InfraProd&#45;&gt;infrapipeline&#45;&gt;infra:init</text>
</g>
<!-- n12 -->
<g id="node21" class="node">
<title>n12</title>
<ellipse fill="none" stroke="black" cx="1760" cy="-478.5" rx="217.69" ry="18"/>
<text text-anchor="middle" x="1760" y="-473.45" font-family="Times,serif" font-size="14.00">gha:infra:sample&#45;&gt;InfraProd&#45;&gt;infrapipeline&#45;&gt;infra:plan</text>
</g>
<!-- n11&#45;&gt;n12 -->
<g id="edge11" class="edge">
<title>n11&#45;&gt;n12</title>
<path fill="none" stroke="green" d="M1755.48,-532.2C1756.11,-524.91 1756.85,-516.23 1757.55,-508.04"/>
<polygon fill="green" stroke="green" points="1761.04,-508.37 1758.4,-498.11 1754.06,-507.78 1761.04,-508.37"/>
</g>
<!-- n12&#45;&gt;n13 -->
<g id="edge12" class="edge">
<title>n12&#45;&gt;n13</title>
<path fill="none" stroke="green" d="M1760.49,-460.2C1760.7,-452.91 1760.95,-444.23 1761.18,-436.04"/>
<polygon fill="green" stroke="green" points="1764.68,-436.21 1761.47,-426.12 1757.68,-436.01 1764.68,-436.21"/>
</g>
<!-- n14&#45;&gt;n15 -->
<g id="edge13" class="edge">
<title>n14&#45;&gt;n15</title>
<path fill="none" stroke="green" d="M1762,-316.2C1762,-308.91 1762,-300.23 1762,-292.04"/>
<polygon fill="green" stroke="green" points="1765.5,-292.12 1762,-282.12 1758.5,-292.12 1765.5,-292.12"/>
</g>
<!-- n19 -->
<g id="node24" class="node">
<title>n19</title>
<ellipse fill="none" stroke="black" cx="1461" cy="-106" rx="256.07" ry="18"/>
<text text-anchor="middle" x="1461" y="-100.95" font-family="Times,serif" font-size="14.00">gha:infra:sample&#45;&gt;InfraProd&#45;&gt;infrapipeline&#45;&gt;helm&#45;&gt;helm:deploy</text>
</g>
<!-- n21 -->
<g id="node25" class="node">
<title>n21</title>
<ellipse fill="none" stroke="black" cx="1434" cy="-34" rx="247.89" ry="18"/>
<text text-anchor="middle" x="1434" y="-28.95" font-family="Times,serif" font-size="14.00">gha:infra:sample&#45;&gt;InfraProd&#45;&gt;infrapipeline&#45;&gt;helm&#45;&gt;helm:docs</text>
</g>
<!-- n19&#45;&gt;n21 -->
<g id="edge15" class="edge">
<title>n19&#45;&gt;n21</title>
<path fill="none" stroke="green" d="M1454.33,-87.7C1451.42,-80.15 1447.93,-71.12 1444.68,-62.68"/>
<polygon fill="green" stroke="green" points="1448.01,-61.59 1441.14,-53.52 1441.48,-64.11 1448.01,-61.59"/>
</g>
<!-- n20 -->
<g id="node26" class="node">
<title>n20</title>
<ellipse fill="none" stroke="black" cx="1973" cy="-34" rx="273.48" ry="18"/>
<text text-anchor="middle" x="1973" y="-28.95" font-family="Times,serif" font-size="14.00">gha:infra:sample&#45;&gt;InfraProd&#45;&gt;infrapipeline&#45;&gt;helm&#45;&gt;helm:notification</text>
</g>
<!-- n19&#45;&gt;n20 -->
<g id="edge14" class="edge">
<title>n19&#45;&gt;n20</title>
<path fill="none" stroke="green" d="M1574.63,-89.46C1655.18,-78.45 1763.32,-63.67 1846.6,-52.28"/>
<polygon fill="green" stroke="green" points="1846.98,-55.76 1856.42,-50.94 1846.04,-48.83 1846.98,-55.76"/>
</g>
<!-- n18 -->
<g id="node27" class="node">
<title>n18</title>
<ellipse fill="none" stroke="black" cx="1461" cy="-178" rx="243.79" ry="18"/>
<text text-anchor="middle" x="1461" y="-172.95" font-family="Times,serif" font-size="14.00">gha:infra:sample&#45;&gt;InfraProd&#45;&gt;infrapipeline&#45;&gt;helm&#45;&gt;helm:test</text>
</g>
<!-- n18&#45;&gt;n19 -->
<g id="edge16" class="edge">
<title>n18&#45;&gt;n19</title>
<path fill="none" stroke="green" d="M1461,-159.7C1461,-152.41 1461,-143.73 1461,-135.54"/>
<polygon fill="green" stroke="green" points="1464.5,-135.62 1461,-125.62 1457.5,-135.62 1464.5,-135.62"/>
</g>
<!-- n4 -->
<g id="node29" class="node">
<title>n4</title>
<ellipse fill="none" stroke="black" cx="141" cy="-635" rx="124.54" ry="18"/>
<text text-anchor="middle" x="141" y="-629.95" font-family="Times,serif" font-size="14.00">gha:infra:sample&#45;&gt;lint&#45;&gt;lint:ci</text>
</g>
<!-- n2 -->
<!-- n2&#45;&gt;n4 -->
<g id="edge17" class="edge">
<title>n2&#45;&gt;n4</title>
<path fill="none" stroke="green" d="M238.89,-709.66C232.42,-704.79 199,-679.65 172.99,-660.07"/>
<polygon fill="green" stroke="green" points="175.11,-657.29 165.02,-654.07 170.9,-662.88 175.11,-657.29"/>
</g>
<!-- n6 -->
<g id="node31" class="node">
<title>n6</title>
<ellipse fill="none" stroke="black" cx="652" cy="-711.5" rx="115.33" ry="18"/>
<text text-anchor="middle" x="652" y="-706.45" font-family="Times,serif" font-size="14.00">gha:infra:sample&#45;&gt;InfraDev</text>
</g>
<!-- n6&#45;&gt;n26 -->
<g id="edge18" class="edge">
<title>n6&#45;&gt;n26</title>
<path fill="none" stroke="brown" d="M652,-693.22C652,-679.35 652,-660.24 652,-648"/>
<polygon fill="brown" stroke="brown" points="655.5,-648.4 652,-638.4 648.5,-648.4 655.5,-648.4"/>
</g>
<!-- n42 -->
<g id="node34" class="node">
<title>n42</title>
<ellipse fill="none" stroke="black" cx="785" cy="-635" rx="113.28" ry="18"/>
<text text-anchor="middle" x="785" y="-629.95" font-family="Times,serif" font-size="14.00">gha:infra:sample&#45;&gt;post dev</text>
</g>
<!-- n6&#45;&gt;n42 -->
<g id="edge19" class="edge">
<title>n6&#45;&gt;n42</title>
<path fill="none" stroke="blue" d="M681.85,-693.78C700.59,-683.28 724.97,-669.63 745.33,-658.22"/>
<polygon fill="blue" stroke="blue" points="746.92,-661.34 753.93,-653.4 743.5,-655.24 746.92,-661.34"/>
</g>
<!-- n5 -->
<g id="node32" class="node">
<title>n5</title>
<ellipse fill="none" stroke="black" cx="1514" cy="-711.5" rx="117.37" ry="18"/>
<text text-anchor="middle" x="1514" y="-706.45" font-family="Times,serif" font-size="14.00">gha:infra:sample&#45;&gt;InfraProd</text>
</g>
<!-- n5&#45;&gt;n8 -->
<g id="edge22" class="edge">
<title>n5&#45;&gt;n8</title>
<path fill="none" stroke="brown" d="M1514,-693.22C1514,-679.35 1514,-660.24 1514,-648"/>
<polygon fill="brown" stroke="brown" points="1517.5,-648.4 1514,-638.4 1510.5,-648.4 1517.5,-648.4"/>
</g>
<!-- n24 -->
<g id="node35" class="node">
<title>n24</title>
<ellipse fill="none" stroke="black" cx="1651" cy="-635" rx="116.86" ry="18"/>
<text text-anchor="middle" x="1651" y="-629.95" font-family="Times,serif" font-size="14.00">gha:infra:sample&#45;&gt;post prod</text>
</g>
<!-- n5&#45;&gt;n24 -->
<g id="edge23" class="edge">
<title>n5&#45;&gt;n24</title>
<path fill="none" stroke="blue" d="M1544.75,-693.78C1564.14,-683.24 1589.39,-669.5 1610.42,-658.07"/>
<polygon fill="blue" stroke="blue" points="1611.91,-661.24 1619.03,-653.39 1608.57,-655.09 1611.91,-661.24"/>
</g>
<!-- n3 -->
<g id="node33" class="node">
<title>n3</title>
<ellipse fill="none" stroke="black" cx="457" cy="-783.5" rx="94.34" ry="18"/>
<text text-anchor="middle" x="457" y="-778.45" font-family="Times,serif" font-size="14.00">gha:infra:sample&#45;&gt;lint</text>
</g>
<!-- n3&#45;&gt;n4 -->
<!-- n3&#45;&gt;n2 -->
<g id="edge27" class="edge">
<title>n3&#45;&gt;n2</title>
<path fill="none" stroke="brown" d="M410.45,-767.48C359.74,-751.12 281.88,-726.01 252.13,-716.41"/>
<polygon fill="brown" stroke="brown" points="253.56,-713.2 242.97,-713.46 251.41,-719.86 253.56,-713.2"/>
</g>
<!-- n3&#45;&gt;n6 -->
<g id="edge29" class="edge">
<title>n3&#45;&gt;n6</title>
<path fill="none" stroke="blue" d="M499.79,-767.14C528.28,-756.91 565.97,-743.38 596.71,-732.35"/>
<polygon fill="blue" stroke="blue" points="597.62,-735.74 605.85,-729.07 595.26,-729.15 597.62,-735.74"/>
</g>
<!-- n3&#45;&gt;n5 -->
<g id="edge28" class="edge">
<title>n3&#45;&gt;n5</title>
<path fill="none" stroke="blue" d="M544.85,-776.68C734.66,-764.11 1183.11,-734.41 1396.81,-720.26"/>
<polygon fill="blue" stroke="blue" points="1396.8,-723.77 1406.54,-719.62 1396.33,-716.78 1396.8,-723.77"/>
</g>
</g>
</svg>
