<?xml version="1.0" encoding="UTF-8" standalone="no"?>
<!DOCTYPE svg PUBLIC "-//W3C//DTD SVG 1.1//EN"
 "http://www.w3.org/Graphics/SVG/1.1/DTD/svg11.dtd">
<!-- Generated by graphviz version 2.40.1 (20161225.0304)
 -->
<!-- Title: %0 Pages: 1 -->
<svg width="574pt" height="330pt"
 viewBox="0.00 0.00 574.00 329.60" xmlns="http://www.w3.org/2000/svg" xmlns:xlink="http://www.w3.org/1999/xlink">
<g id="graph0" class="graph" transform="scale(1 1) rotate(0) translate(4 325.6)">
<title>%0</title>
<polygon fill="#ffffff" stroke="transparent" points="-4,4 -4,-325.6 570,-325.6 570,4 -4,4"/>
<g id="clust1" class="cluster">
<title>cluster_s30</title>
<polygon fill="#d3d3d3" stroke="#d3d3d3" points="8,-8 8,-313.6 558,-313.6 558,-8 8,-8"/>
<text text-anchor="middle" x="283" y="-297" font-family="Times,serif" font-size="14.00" fill="#000000">Legend</text>
</g>
<g id="clust2" class="cluster">
<title>cluster_s31</title>
<polygon fill="none" stroke="#000000" stroke-dasharray="5,2" points="16,-16 16,-164.8 384,-164.8 384,-16 16,-16"/>
<text text-anchor="middle" x="200" y="-148.2" font-family="Times,serif" font-size="14.00" fill="#000000">Job 2</text>
</g>
<!-- n34 -->
<!-- n32 -->
<g id="node2" class="node">
<title>n32</title>
<ellipse fill="none" stroke="#000000" cx="73" cy="-114" rx="48.6772" ry="18"/>
<text text-anchor="middle" x="73" y="-109.8" font-family="Times,serif" font-size="14.00" fill="#000000">job task 1</text>
</g>
<!-- n33 -->
<g id="node3" class="node">
<title>n33</title>
<ellipse fill="none" stroke="#000000" cx="73" cy="-42" rx="46.3492" ry="18"/>
<text text-anchor="middle" x="73" y="-37.8" font-family="Times,serif" font-size="14.00" fill="#000000">job task2</text>
</g>
<!-- n32&#45;&gt;n33 -->
<g id="edge1" class="edge">
<title>n32&#45;&gt;n33</title>
<path fill="none" stroke="#00ff00" d="M73,-95.8314C73,-88.131 73,-78.9743 73,-70.4166"/>
<polygon fill="#00ff00" stroke="#00ff00" points="76.5001,-70.4132 73,-60.4133 69.5001,-70.4133 76.5001,-70.4132"/>
</g>
<!-- n35 -->
<g id="node4" class="node">
<title>n35</title>
<ellipse fill="none" stroke="#000000" cx="426" cy="-262.8" rx="31.8847" ry="18"/>
<text text-anchor="middle" x="426" y="-258.6" font-family="Times,serif" font-size="14.00" fill="#000000">Job 1</text>
</g>
<!-- n36 -->
<g id="node5" class="node">
<title>n36</title>
<ellipse fill="none" stroke="#000000" cx="426" cy="-190.8" rx="31.8847" ry="18"/>
<text text-anchor="middle" x="426" y="-186.6" font-family="Times,serif" font-size="14.00" fill="#000000">Job 2</text>
</g>
<!-- n35&#45;&gt;n36 -->
<g id="edge2" class="edge">
<title>n35&#45;&gt;n36</title>
<path fill="none" stroke="#0000ff" d="M426,-244.6314C426,-236.931 426,-227.7743 426,-219.2166"/>
<polygon fill="#0000ff" stroke="#0000ff" points="429.5001,-219.2132 426,-209.2133 422.5001,-219.2133 429.5001,-219.2132"/>
</g>
<!-- n36&#45;&gt;n34 -->
<g id="edge6" class="edge">
<title>n36&#45;&gt;n34</title>
<path fill="none" stroke="#a52a2a" d="M401.211,-179.4679C375.9825,-167.9348 336.2554,-149.7739 305.0368,-135.5025"/>
<polygon fill="#a52a2a" stroke="#a52a2a" points="306.1968,-132.1845 295.6469,-131.21 303.2865,-138.5508 306.1968,-132.1845"/>
</g>
<!-- n37 -->
<g id="node6" class="node">
<title>n37</title>
<ellipse fill="none" stroke="#000000" cx="426" cy="-114" rx="31.8847" ry="18"/>
<text text-anchor="middle" x="426" y="-109.8" font-family="Times,serif" font-size="14.00" fill="#000000">Job 3</text>
</g>
<!-- n36&#45;&gt;n37 -->
<g id="edge3" class="edge">
<title>n36&#45;&gt;n37</title>
<path fill="none" stroke="#0000ff" d="M426,-172.5995C426,-163.5132 426,-152.3176 426,-142.1549"/>
<polygon fill="#0000ff" stroke="#0000ff" points="429.5001,-142.0698 426,-132.0699 422.5001,-142.0699 429.5001,-142.0698"/>
</g>
<!-- n38 -->
<g id="node7" class="node">
<title>n38</title>
<ellipse fill="none" stroke="#000000" cx="513" cy="-114" rx="37.0989" ry="18"/>
<text text-anchor="middle" x="513" y="-109.8" font-family="Times,serif" font-size="14.00" fill="#000000">Task 1</text>
</g>
<!-- n36&#45;&gt;n38 -->
<g id="edge4" class="edge">
<title>n36&#45;&gt;n38</title>
<path fill="none" stroke="#0000ff" d="M448.4674,-178.0785C454.7098,-174.1441 461.3272,-169.5786 467,-164.8 476.1964,-157.0533 485.3007,-147.5059 492.9525,-138.7869"/>
<polygon fill="#0000ff" stroke="#0000ff" points="495.696,-140.964 499.5322,-131.088 490.3746,-136.4161 495.696,-140.964"/>
</g>
<!-- n39 -->
<g id="node8" class="node">
<title>n39</title>
<ellipse fill="none" stroke="#000000" cx="429" cy="-42" rx="37.0989" ry="18"/>
<text text-anchor="middle" x="429" y="-37.8" font-family="Times,serif" font-size="14.00" fill="#000000">Task 2</text>
</g>
<!-- n37&#45;&gt;n39 -->
<g id="edge5" class="edge">
<title>n37&#45;&gt;n39</title>
<path fill="none" stroke="#0000ff" d="M426.757,-95.8314C427.0779,-88.131 427.4594,-78.9743 427.816,-70.4166"/>
<polygon fill="#0000ff" stroke="#0000ff" points="431.3133,-70.5503 428.2328,-60.4133 424.3194,-70.2589 431.3133,-70.5503"/>
</g>
</g>
</svg>