<?xml version="1.0" encoding="UTF-8" standalone="no"?>
<!DOCTYPE svg PUBLIC "-//W3C//DTD SVG 1.1//EN"
 "http://www.w3.org/Graphics/SVG/1.1/DTD/svg11.dtd">
<!-- Generated by graphviz version 12.1.1 (20240910.0053)
 -->
<!-- Pages: 1 -->
<svg width="654pt" height="810pt"
 viewBox="0.00 0.00 653.72 809.50" xmlns="http://www.w3.org/2000/svg" xmlns:xlink="http://www.w3.org/1999/xlink">
<g id="graph0" class="graph" transform="scale(1 1) rotate(0) translate(4 805.5)">
<polygon fill="white" stroke="none" points="-4,4 -4,-805.5 649.72,-805.5 649.72,4 -4,4"/>
<g id="clust1" class="cluster">
<title>cluster_s7</title>
<polygon fill="none" stroke="black" points="96,-524.5 96,-685.5 250,-685.5 250,-524.5 96,-524.5"/>
<text text-anchor="middle" x="173" y="-668.2" font-family="Times,serif" font-size="14.00">InfraDev</text>
</g>
<g id="clust2" class="cluster">
<title>cluster_s25</title>
<polygon fill="none" stroke="black" points="390,-524.5 390,-685.5 544,-685.5 544,-524.5 390,-524.5"/>
<text text-anchor="middle" x="467" y="-668.2" font-family="Times,serif" font-size="14.00">InfraProd</text>
</g>
<g id="clust3" class="cluster">
<title>cluster_s16</title>
<polygon fill="none" stroke="black" points="81,-8 81,-228.5 363,-228.5 363,-8 81,-8"/>
<text text-anchor="middle" x="222" y="-211.2" font-family="Times,serif" font-size="14.00">helm</text>
</g>
<g id="clust4" class="cluster">
<title>cluster_s9</title>
<polygon fill="none" stroke="black" points="258,-236.5 258,-601 382,-601 382,-236.5 258,-236.5"/>
<text text-anchor="middle" x="320" y="-583.7" font-family="Times,serif" font-size="14.00">infrapipeline</text>
</g>
<g id="clust5" class="cluster">
<title>cluster_s1</title>
<polygon fill="none" stroke="black" points="8,-609 8,-745.8 88,-745.8 88,-609 8,-609"/>
<text text-anchor="middle" x="48" y="-728.5" font-family="Times,serif" font-size="14.00">lint</text>
</g>
<!-- n8 -->
<!-- n22 -->
<g id="node2" class="node">
<title>n22</title>
<ellipse fill="none" stroke="black" cx="184" cy="-635" rx="58" ry="18"/>
<text text-anchor="middle" x="184" y="-629.95" font-family="Times,serif" font-size="14.00">infrapipeline</text>
</g>
<!-- n23 -->
<g id="node3" class="node">
<title>n23</title>
<ellipse fill="none" stroke="black" cx="184" cy="-550.5" rx="43.67" ry="18"/>
<text text-anchor="middle" x="184" y="-545.45" font-family="Times,serif" font-size="14.00">post:task</text>
</g>
<!-- n22&#45;&gt;n23 -->
<g id="edge1" class="edge">
<title>n22&#45;&gt;n23</title>
<path fill="none" stroke="green" d="M184,-616.5C184,-606 184,-592.39 184,-580.33"/>
<polygon fill="green" stroke="green" points="187.5,-580.48 184,-570.48 180.5,-580.48 187.5,-580.48"/>
</g>
<!-- n10 -->
<!-- n22&#45;&gt;n10 -->
<g id="edge16" class="edge">
<title>n22&#45;&gt;n10</title>
<path fill="none" stroke="brown" d="M216.49,-619.76C227.28,-615.61 239.48,-611.51 251,-609 262.97,-606.39 351.73,-609.01 361,-601 371.51,-591.93 373.24,-575.25 373.03,-563.78"/>
<polygon fill="brown" stroke="brown" points="376.52,-563.58 372.25,-553.88 369.54,-564.12 376.52,-563.58"/>
</g>
<!-- n26 -->
<!-- n27 -->
<g id="node5" class="node">
<title>n27</title>
<ellipse fill="none" stroke="black" cx="478" cy="-635" rx="58" ry="18"/>
<text text-anchor="middle" x="478" y="-629.95" font-family="Times,serif" font-size="14.00">infrapipeline</text>
</g>
<!-- n28 -->
<g id="node6" class="node">
<title>n28</title>
<ellipse fill="none" stroke="black" cx="478" cy="-550.5" rx="43.67" ry="18"/>
<text text-anchor="middle" x="478" y="-545.45" font-family="Times,serif" font-size="14.00">post:task</text>
</g>
<!-- n27&#45;&gt;n28 -->
<g id="edge2" class="edge">
<title>n27&#45;&gt;n28</title>
<path fill="none" stroke="green" d="M478,-616.5C478,-606 478,-592.39 478,-580.33"/>
<polygon fill="green" stroke="green" points="481.5,-580.48 478,-570.48 474.5,-580.48 481.5,-580.48"/>
</g>
<!-- n27&#45;&gt;n10 -->
<g id="edge17" class="edge">
<title>n27&#45;&gt;n10</title>
<path fill="none" stroke="brown" d="M442.65,-620.45C432.47,-616.65 421.32,-612.58 411,-609 399.98,-605.18 394.11,-609.39 386,-601 376.33,-590.99 373.24,-574.82 372.31,-563.7"/>
<polygon fill="brown" stroke="brown" points="375.81,-563.73 372.01,-553.84 368.82,-563.94 375.81,-563.73"/>
</g>
<!-- n19 -->
<g id="node7" class="node">
<title>n19</title>
<ellipse fill="none" stroke="black" cx="181" cy="-106" rx="57.49" ry="18"/>
<text text-anchor="middle" x="181" y="-100.95" font-family="Times,serif" font-size="14.00">helm:deploy</text>
</g>
<!-- n21 -->
<g id="node8" class="node">
<title>n21</title>
<ellipse fill="none" stroke="black" cx="138" cy="-34" rx="49.3" ry="18"/>
<text text-anchor="middle" x="138" y="-28.95" font-family="Times,serif" font-size="14.00">helm:docs</text>
</g>
<!-- n19&#45;&gt;n21 -->
<g id="edge4" class="edge">
<title>n19&#45;&gt;n21</title>
<path fill="none" stroke="green" d="M170.59,-88.05C165.68,-80.06 159.7,-70.33 154.22,-61.4"/>
<polygon fill="green" stroke="green" points="157.32,-59.77 149.11,-53.08 151.36,-63.43 157.32,-59.77"/>
</g>
<!-- n20 -->
<g id="node9" class="node">
<title>n20</title>
<ellipse fill="none" stroke="black" cx="280" cy="-34" rx="74.89" ry="18"/>
<text text-anchor="middle" x="280" y="-28.95" font-family="Times,serif" font-size="14.00">helm:notification</text>
</g>
<!-- n19&#45;&gt;n20 -->
<g id="edge3" class="edge">
<title>n19&#45;&gt;n20</title>
<path fill="none" stroke="green" d="M203.46,-89.12C216.47,-79.92 233.08,-68.18 247.49,-57.98"/>
<polygon fill="green" stroke="green" points="249.21,-61.06 255.36,-52.43 245.17,-55.34 249.21,-61.06"/>
</g>
<!-- n18 -->
<g id="node10" class="node">
<title>n18</title>
<ellipse fill="none" stroke="black" cx="181" cy="-178" rx="45.21" ry="18"/>
<text text-anchor="middle" x="181" y="-172.95" font-family="Times,serif" font-size="14.00">helm:test</text>
</g>
<!-- n18&#45;&gt;n19 -->
<g id="edge5" class="edge">
<title>n18&#45;&gt;n19</title>
<path fill="none" stroke="green" d="M181,-159.7C181,-152.41 181,-143.73 181,-135.54"/>
<polygon fill="green" stroke="green" points="184.5,-135.62 181,-125.62 177.5,-135.62 184.5,-135.62"/>
</g>
<!-- n17 -->
<!-- n15 -->
<g id="node12" class="node">
<title>n15</title>
<ellipse fill="none" stroke="black" cx="317" cy="-262.5" rx="29.86" ry="18"/>
<text text-anchor="middle" x="317" y="-257.45" font-family="Times,serif" font-size="14.00">helm</text>
</g>
<!-- n15&#45;&gt;n17 -->
<g id="edge15" class="edge">
<title>n15&#45;&gt;n17</title>
<path fill="none" stroke="brown" d="M317,-244C317,-228.23 317,-205.43 317,-191.44"/>
<polygon fill="brown" stroke="brown" points="320.5,-191.54 317,-181.54 313.5,-191.54 320.5,-191.54"/>
</g>
<!-- n13 -->
<g id="node13" class="node">
<title>n13</title>
<ellipse fill="none" stroke="black" cx="317" cy="-406.5" rx="51.35" ry="18"/>
<text text-anchor="middle" x="317" y="-401.45" font-family="Times,serif" font-size="14.00">infra:apply</text>
</g>
<!-- n14 -->
<g id="node17" class="node">
<title>n14</title>
<ellipse fill="none" stroke="black" cx="317" cy="-334.5" rx="49.3" ry="18"/>
<text text-anchor="middle" x="317" y="-329.45" font-family="Times,serif" font-size="14.00">post:apply</text>
</g>
<!-- n13&#45;&gt;n14 -->
<g id="edge6" class="edge">
<title>n13&#45;&gt;n14</title>
<path fill="none" stroke="green" d="M317,-388.2C317,-380.91 317,-372.23 317,-364.04"/>
<polygon fill="green" stroke="green" points="320.5,-364.12 317,-354.12 313.5,-364.12 320.5,-364.12"/>
</g>
<!-- n11 -->
<g id="node14" class="node">
<title>n11</title>
<ellipse fill="none" stroke="black" cx="309" cy="-550.5" rx="43.16" ry="18"/>
<text text-anchor="middle" x="309" y="-545.45" font-family="Times,serif" font-size="14.00">infra:init</text>
</g>
<!-- n12 -->
<g id="node15" class="node">
<title>n12</title>
<ellipse fill="none" stroke="black" cx="315" cy="-478.5" rx="46.75" ry="18"/>
<text text-anchor="middle" x="315" y="-473.45" font-family="Times,serif" font-size="14.00">infra:plan</text>
</g>
<!-- n11&#45;&gt;n12 -->
<g id="edge7" class="edge">
<title>n11&#45;&gt;n12</title>
<path fill="none" stroke="green" d="M310.48,-532.2C311.11,-524.91 311.85,-516.23 312.55,-508.04"/>
<polygon fill="green" stroke="green" points="316.04,-508.37 313.4,-498.11 309.06,-507.78 316.04,-508.37"/>
</g>
<!-- n12&#45;&gt;n13 -->
<g id="edge8" class="edge">
<title>n12&#45;&gt;n13</title>
<path fill="none" stroke="green" d="M315.49,-460.2C315.7,-452.91 315.95,-444.23 316.18,-436.04"/>
<polygon fill="green" stroke="green" points="319.68,-436.21 316.47,-426.12 312.68,-436.01 319.68,-436.21"/>
</g>
<!-- n14&#45;&gt;n15 -->
<g id="edge9" class="edge">
<title>n14&#45;&gt;n15</title>
<path fill="none" stroke="green" d="M317,-316.2C317,-308.91 317,-300.23 317,-292.04"/>
<polygon fill="green" stroke="green" points="320.5,-292.12 317,-282.12 313.5,-292.12 320.5,-292.12"/>
</g>
<!-- n4 -->
<g id="node18" class="node">
<title>n4</title>
<ellipse fill="none" stroke="black" cx="48" cy="-635" rx="32.41" ry="18"/>
<text text-anchor="middle" x="48" y="-629.95" font-family="Times,serif" font-size="14.00">lint:ci</text>
</g>
<!-- n2 -->
<!-- n2&#45;&gt;n4 -->
<g id="edge10" class="edge">
<title>n2&#45;&gt;n4</title>
<path fill="none" stroke="green" d="M77.58,-709.45C75.54,-704.39 66.56,-682.08 59.02,-663.36"/>
<polygon fill="green" stroke="green" points="62.36,-662.29 55.38,-654.32 55.87,-664.9 62.36,-662.29"/>
</g>
<!-- n5 -->
<g id="node20" class="node">
<title>n5</title>
<ellipse fill="none" stroke="black" cx="142" cy="-711.5" rx="44.19" ry="18"/>
<text text-anchor="middle" x="142" y="-706.45" font-family="Times,serif" font-size="14.00">InfraDev</text>
</g>
<!-- n5&#45;&gt;n8 -->
<g id="edge11" class="edge">
<title>n5&#45;&gt;n8</title>
<path fill="none" stroke="brown" d="M123.59,-694.65C121.09,-691.82 118.77,-688.73 117,-685.5 110.55,-673.75 107.88,-658.47 106.78,-648.01"/>
<polygon fill="brown" stroke="brown" points="110.29,-648 106.12,-638.26 103.3,-648.48 110.29,-648"/>
</g>
<!-- n24 -->
<g id="node23" class="node">
<title>n24</title>
<ellipse fill="none" stroke="black" cx="302" cy="-635" rx="42.14" ry="18"/>
<text text-anchor="middle" x="302" y="-629.95" font-family="Times,serif" font-size="14.00">post dev</text>
</g>
<!-- n5&#45;&gt;n24 -->
<g id="edge12" class="edge">
<title>n5&#45;&gt;n24</title>
<path fill="none" stroke="blue" d="M185.04,-706.8C206.79,-703.5 232.96,-697.27 254,-685.5 264.81,-679.45 274.73,-670.2 282.7,-661.33"/>
<polygon fill="blue" stroke="blue" points="285.23,-663.76 289.02,-653.87 279.89,-659.24 285.23,-663.76"/>
</g>
<!-- n6 -->
<g id="node21" class="node">
<title>n6</title>
<ellipse fill="none" stroke="black" cx="400" cy="-711.5" rx="46.23" ry="18"/>
<text text-anchor="middle" x="400" y="-706.45" font-family="Times,serif" font-size="14.00">InfraProd</text>
</g>
<!-- n6&#45;&gt;n26 -->
<g id="edge13" class="edge">
<title>n6&#45;&gt;n26</title>
<path fill="none" stroke="brown" d="M400,-693.22C400,-679.35 400,-660.24 400,-648"/>
<polygon fill="brown" stroke="brown" points="403.5,-648.4 400,-638.4 396.5,-648.4 403.5,-648.4"/>
</g>
<!-- n29 -->
<g id="node24" class="node">
<title>n29</title>
<ellipse fill="none" stroke="black" cx="600" cy="-635" rx="45.72" ry="18"/>
<text text-anchor="middle" x="600" y="-629.95" font-family="Times,serif" font-size="14.00">post prod</text>
</g>
<!-- n6&#45;&gt;n29 -->
<g id="edge14" class="edge">
<title>n6&#45;&gt;n29</title>
<path fill="none" stroke="blue" d="M446.18,-709.63C476.52,-707.43 516.31,-701.36 548,-685.5 559.83,-679.58 570.78,-670.07 579.55,-660.95"/>
<polygon fill="blue" stroke="blue" points="582.11,-663.35 586.24,-653.59 576.93,-658.64 582.11,-663.35"/>
</g>
<!-- n3 -->
<g id="node22" class="node">
<title>n3</title>
<ellipse fill="none" stroke="black" cx="110" cy="-783.5" rx="27" ry="18"/>
<text text-anchor="middle" x="110" y="-778.45" font-family="Times,serif" font-size="14.00">lint</text>
</g>
<!-- n3&#45;&gt;n4 -->
<!-- n3&#45;&gt;n2 -->
<g id="edge19" class="edge">
<title>n3&#45;&gt;n2</title>
<path fill="none" stroke="brown" d="M99.87,-766.42C96.16,-760.14 92.11,-752.77 89,-745.8 85.93,-738.92 83.26,-730.91 81.32,-724.47"/>
<polygon fill="brown" stroke="brown" points="84.74,-723.71 78.68,-715.02 78,-725.6 84.74,-723.71"/>
</g>
<!-- n3&#45;&gt;n5 -->
<g id="edge20" class="edge">
<title>n3&#45;&gt;n5</title>
<path fill="none" stroke="blue" d="M117.58,-765.91C121.16,-758.09 125.51,-748.56 129.55,-739.73"/>
<polygon fill="blue" stroke="blue" points="132.64,-741.38 133.62,-730.83 126.28,-738.47 132.64,-741.38"/>
</g>
<!-- n3&#45;&gt;n6 -->
<g id="edge21" class="edge">
<title>n3&#45;&gt;n6</title>
<path fill="none" stroke="blue" d="M135.23,-776.41C183.1,-764.86 287.89,-739.56 350.33,-724.49"/>
<polygon fill="blue" stroke="blue" points="351.1,-727.9 360,-722.15 349.46,-721.1 351.1,-727.9"/>
</g>
</g>
</svg>
