<?xml version="1.0" encoding="UTF-8" standalone="no"?>
<!DOCTYPE svg PUBLIC "-//W3C//DTD SVG 1.1//EN"
 "http://www.w3.org/Graphics/SVG/1.1/DTD/svg11.dtd">
<!-- Generated by graphviz version 2.42.3 (20191010.1750)
 -->
<!-- Title: %3 Pages: 1 -->
<svg width="490pt" height="144pt"
     viewBox="0.00 0.00 489.86 144.00" xmlns="http://www.w3.org/2000/svg">
<g id="graph0" class="graph" transform="scale(1 1) rotate(0) translate(4 140)">
<title>%3</title>
<polygon fill="white" stroke="transparent" points="-4,4 -4,-140 485.86,-140 485.86,4 -4,4"/>
<!-- n7 -->
<g id="node1" class="node">
<title>n7</title>
<ellipse fill="none" stroke="black" cx="452.1" cy="-72" rx="29.54" ry="18"/>
<text text-anchor="middle" x="452.1" y="-67.8" font-family="Times,serif" font-size="14.00">finish</text>
</g>
<!-- n1 -->
<g id="node2" class="node">
<title>n1</title>
<ellipse fill="none" stroke="black" cx="41.79" cy="-72" rx="41.58" ry="18"/>
<text text-anchor="middle" x="41.79" y="-67.8" font-family="Times,serif" font-size="14.00">start task</text>
</g>
<!-- n2 -->
<g id="node3" class="node">
<title>n2</title>
<ellipse fill="none" stroke="black" cx="253.45" cy="-118" rx="32.43" ry="18"/>
<text text-anchor="middle" x="253.45" y="-113.8" font-family="Times,serif" font-size="14.00">task A</text>
</g>
<!-- n1&#45;&gt;n2 -->
<g id="edge1" class="edge">
<title>n1&#45;&gt;n2</title>
<path fill="none" stroke="black" d="M73.01,-84.17C86.99,-89.4 103.93,-95.17 119.58,-99 149.85,-106.41 184.76,-111.26 211.2,-114.21"/>
<polygon fill="black" stroke="black" points="210.93,-117.7 221.25,-115.28 211.67,-110.74 210.93,-117.7"/>
</g>
<!-- n3 -->
<g id="node4" class="node">
<title>n3</title>
<ellipse fill="none" stroke="black" cx="152.04" cy="-72" rx="32.42" ry="18"/>
<text text-anchor="middle" x="152.04" y="-67.8" font-family="Times,serif" font-size="14.00">task B</text>
</g>
<!-- n1&#45;&gt;n3 -->
<g id="edge2" class="edge">
<title>n1&#45;&gt;n3</title>
<path fill="none" stroke="black" d="M83.71,-72C92.14,-72 101.02,-72 109.47,-72"/>
<polygon fill="black" stroke="black" points="109.51,-75.5 119.51,-72 109.51,-68.5 109.51,-75.5"/>
</g>
<!-- n4 -->
<g id="node5" class="node">
<title>n4</title>
<ellipse fill="none" stroke="black" cx="152.04" cy="-18" rx="32.42" ry="18"/>
<text text-anchor="middle" x="152.04" y="-13.8" font-family="Times,serif" font-size="14.00">task C</text>
</g>
<!-- n1&#45;&gt;n4 -->
<g id="edge3" class="edge">
<title>n1&#45;&gt;n4</title>
<path fill="none" stroke="black" d="M69.83,-58.51C84.45,-51.22 102.63,-42.15 118.08,-34.44"/>
<polygon fill="black" stroke="black" points="119.9,-37.44 127.29,-29.85 116.78,-31.18 119.9,-37.44"/>
</g>
<!-- n6 -->
<g id="node7" class="node">
<title>n6</title>
<ellipse fill="none" stroke="black" cx="354.36" cy="-72" rx="31.93" ry="18"/>
<text text-anchor="middle" x="354.36" y="-67.8" font-family="Times,serif" font-size="14.00">task E</text>
</g>
<!-- n2&#45;&gt;n6 -->
<g id="edge4" class="edge">
<title>n2&#45;&gt;n6</title>
<path fill="none" stroke="black" d="M278.9,-106.63C291.24,-100.89 306.39,-93.84 319.8,-87.61"/>
<polygon fill="black" stroke="black" points="321.6,-90.63 329.2,-83.24 318.65,-84.28 321.6,-90.63"/>
</g>
<!-- n3&#45;&gt;n6 -->
<g id="edge5" class="edge">
<title>n3&#45;&gt;n6</title>
<path fill="none" stroke="black" d="M184.78,-72C219.17,-72 274.17,-72 311.94,-72"/>
<polygon fill="black" stroke="black" points="312.1,-75.5 322.1,-72 312.1,-68.5 312.1,-75.5"/>
</g>
<!-- n5 -->
<g id="node6" class="node">
<title>n5</title>
<ellipse fill="none" stroke="black" cx="253.45" cy="-22" rx="32.9" ry="18"/>
<text text-anchor="middle" x="253.45" y="-17.8" font-family="Times,serif" font-size="14.00">task D</text>
</g>
<!-- n4&#45;&gt;n5 -->
<g id="edge6" class="edge">
<title>n4&#45;&gt;n5</title>
<path fill="none" stroke="black" d="M184.49,-19.27C192.75,-19.6 201.79,-19.96 210.5,-20.31"/>
<polygon fill="black" stroke="black" points="210.38,-23.81 220.52,-20.72 210.67,-16.82 210.38,-23.81"/>
</g>
<!-- n5&#45;&gt;n6 -->
<g id="edge7" class="edge">
<title>n5&#45;&gt;n6</title>
<path fill="none" stroke="black" d="M278.14,-33.98C290.87,-40.41 306.75,-48.44 320.63,-55.45"/>
<polygon fill="black" stroke="black" points="319.36,-58.73 329.87,-60.12 322.52,-52.49 319.36,-58.73"/>
</g>
<!-- n6&#45;&gt;n7 -->
<g id="edge8" class="edge">
<title>n6&#45;&gt;n7</title>
<path fill="none" stroke="black" d="M386.45,-72C394.6,-72 403.49,-72 412,-72"/>
<polygon fill="black" stroke="black" points="412.12,-75.5 422.12,-72 412.12,-68.5 412.12,-75.5"/>
</g>
</g>
</svg>
